<?xml version="1.0" encoding="UTF-8" standalone="no"?>
<svg
   xmlns="http://www.w3.org/2000/svg"
   version="1.1"
   viewBox="0 0 512 640"
>
  <path fill="#ffffff" d="m 292.2,435.8 c -3.6,0 -6.1,0 -8.6,0 -27.7,-0.1 -55.3,0.3 -83,-0.3 -45.6,-0.9 -85.1,-32.6 -96.3,-76.7 -9.2,-36.1 -18.1,-72.4 -27.1,-108.6 -6.4,-25.7 6.8,-48.9 31.2,-55.3 24,-6.3 47.4,8.2 53.9,33.6 9,35.2 17.8,70.5 26.7,105.8 2.4,9.7 7.2,13.4 17.3,13.4 35.3,0 70.7,0 106,0 26.7,0 45.6,18.9 45.7,45.6 0,48.6 0,97.2 0,145.8 0,19.6 -13.9,34.3 -32.5,34.5 -18.7,0.2 -33,-14.1 -33.2,-33.8 -0.2,-31.9 -0.1,-63.7 -0.1,-95.6 0,-2.3 0,-4.8 0,-8.4 z" />
  <path fill="#ffffff" d="m 262.4,186.9 c -0.2,-63.4 51.7,-115.4 115,-115.5 63.1,-0.1 115.6,51.4 115.7,113.4 0.1,64.5 -50.6,116 -113.3,117.2 -60,1.2 -116.9,-47 -117.4,-115.1 z m 115.9,-82.3 c -45.9,-0.1 -82.9,36.3 -83,81.6 -0.1,45.4 36.6,82.7 81.9,83.2 45.4,0.5 82.9,-37 82.8,-82.7 -0.1,-45.5 -36.5,-82 -81.7,-82.1 z"/>
  <path fill="#ffffff" d="m 208.4,490.6 c -24.4,1.7 -52,-1.7 -77.7,-15 -44,-22.9 -74,-57.1 -85.8,-106.3 -7.6,-31.7 -15.9,-63.3 -23.8,-95 -2.5,-10 2.4,-19 11.4,-21.3 9.2,-2.3 17.6,2.9 20.3,13.2 8.3,32.3 16.5,64.6 24.5,97 13.4,54.7 63.9,94.6 120.3,94.7 15.8,0 31.6,0 47.4,0 10.6,0 17.8,6.6 18,16.2 0.1,9.1 -6.8,16.1 -17,16.4 -11.2,0.4 -22.3,0.1 -37.6,0.1 z" />
  <path fill="#ffffff" d="m 109,177.6 c -27.1,0 -49.3,-22 -49.5,-49 -0.1,-27 22.9,-49.8 49.8,-49.4 27.2,0.4 49.1,22.5 49,49.5 -0.1,27 -22.1,48.9 -49.3,48.9 z"/>
  <path fill="#ffffff" d="m 371.9,185.4 c 14.8,-15 28.7,-29 42.6,-42.9 5.2,-5.2 10.7,-5.7 15.4,-1.7 5,4.1 5.8,11 0.9,16 -16.9,17.2 -34,34.3 -51.2,51.2 -4.7,4.6 -10.4,4.2 -15,-0.2 -11.5,-11.1 -22.9,-22.4 -34,-34 -4.8,-5 -4.3,-11.4 0.2,-15.6 4.5,-4.2 10.6,-4.1 15.7,0.6 4.4,4.1 8.7,8.4 12.8,12.8 4.1,4.3 8,8.8 12.6,13.8 z"/>
  <path fill="#ffffff" d="m 241.7,575 -95.1,0 c -8.3,0 -15,-6.8 -15,-15 l 0,-30 c 0,-8.3 6.8,-15 15,-15 l 95.1,0 c 8.3,0 15,6.8 15,15 l 0,30 c 0,8.3 -6.7,15 -15,15 z"/>
</svg>